<?xml version="1.0" encoding="UTF-8"?>
<svg id="Layer_2" xmlns="http://www.w3.org/2000/svg" viewBox="0 0 529.97 530.61">
  <defs>
    <style>
      .cls-1 {
        fill: #E68105;
      }
    </style>
  </defs>
  <g id="Layer_1-2" data-name="Layer_1">
    <g>
      <path class="cls-1" d="M281.82,487.72c1.6.91,2.86,2.33,5.33,5.14.79.9,1.63,1.88,2.92,3.1.27.24.47.41,1.11,1.02.84.78,1.29,1.22,2.33,2.18,3.16,2.89,5.19,4.57,7.16,6.04,1.97,1.51,2.76,1.95,3.58,2.32,1.83.85,3.51,1.13,4.65,1.24.26-5.86.5-11.74.76-17.6-3.1-1.03-7.31-2.75-11.89-5.6-1-.63-3.46-2.53-8.33-6.33-6.16-4.79-9.37-7.42-9.87-10.9-.04-.33-.28-2.01.35-2.33.54-.26,1.46.54,2.77,1.7.99.87,1.69,1.62,1.97,1.96,1.6,1.79,1.56,2.21,2.6,3.3,1.27,1.32,2.56,2.03,3.41,2.49,1.77.97,3.43,1.39,4.64,1.6-.2-2.17-.61-3.96-.98-5.27-.47-1.64-.81-2.76-1.64-4.1-.53-.87-.59-.73-1.79-2.49-1.1-1.64-.54-1-1.89-3.13-.6-.97-.93-1.44-.89-2.14,0-.09.08-1.14.71-1.43.83-.4,1.83.88,3.5,1.86,1.41.84,2.01.69,7.23,1.68,1.18.21,2.98.58,5.18,1.06-.23-1.68-.82-2.86-1.25-3.58-.79-1.3-1.66-1.99-3.4-3.39-1.5-1.18-2.26-1.79-3.23-1.96-1.16-.18-1.75.19-2.6-.25-.37-.2-.61-.47-.81-.78,2.31,0,4.12-1.51,7.03-.17,3.5,1.6,2.89,4.67,7.76,8.15,2.29,1.65,4.4,2.39,5.71,2.84,4.11,1.42,7.72,1.45,9.9,1.32-2.06-2.53-4.09-4.38-5.72-5.69-3.71-3.01-5.67-3.42-8.06-6.46-.24-.3-3.66-4.81-2.45-6.88.5-.84,1.54-1.14,3.09-1.56,2.64-.73,4.16-.41,5.72-.51,5.33-.38,9.16-5.97,9.43-6.35,2.43-3.64,2.89-7.74,2.89-7.74.14-1.26.16-2.91,1.27-4.74.2-.34,1.51-2.49,2.55-2.3.96.18,1.16,2.26,1.44,4.3.15,1.11,1.15,8.48,2.61,12.3.79,2.09,2.41,4.87,5.98,7.57,1.26-2.84,3.06-7.94,2.85-14.3-.18-5.25-.32-9.11-3-12.11-1.17-1.28-3.19-2.89-2.72-4.1.26-.63,1.07-1.04,1.75-1.1,3.01-.28,3.35,5.81,8.71,9.23,2.34,1.48,4.82,1.96,8.33,2.6,2.58.46,4.79.59,6.43.63-1.73-3.66-3.85-6.14-5.34-7.62-2.37-2.39-3.77-3.78-6.2-4.52-1.27-.38-4.55-1.12-6.66-1.57-.98-.21-2.23-.45-2.93-1.49-.43-.66-.75-1.74-.43-2.62.86-2.5,5.63-.94,9.82-4.2.63-.49,4.57-3.56,4.97-7.66.11-1.2,0-3.37,1.39-4.37.3-.21.61-.44.94-.4,1.83.17,1.13,7.13,3.87,13.38,1.58,3.59,4.05,5.91,5.71,7.25,1.92-9.96,1.21-17,.08-21.75-.43-1.82-1.51-5.77-.64-6.19.6-.32,1.83,1.34,3.95,3.78,2.9,3.37,6.19,6.67,8.18,8.31,2.09,1.71,5.47,3.79,10.98,4.84.14-2.8-.05-7.33-2.62-11.6-.9-1.5-2.95-4.87-6.73-6.9-1.03-.57-2.7-1.29-4.58-2.97-1.79-1.55-2.66-2.33-2.57-3.19.24-2.84,9.54-2.06,12.43-7.52.88-1.68,1.33-4.25,1.82-7.18.49-2.72.55-4.55,1.4-4.81.98-.3,2.31,1.68,2.5,1.95,1.45,2.21.88,3.72,1.53,6.16.55,2.05,2.18,3.85,5.47,7.46,1.72,1.88,3.27,3.37,4.53,4.51.78-9.04-.74-15.27-2.31-19.37-.96-2.46-3.17-7.25-1.48-8.87.31-.29.74-.46,3.09-.71,2.87-.31,4.89-.34,5.55-.37,5.26-.25,9.46-4.81,10.1-5.51,1.01-1.13,3.2-3.5,4.09-7.05.64-2.47.42-4.65,1.86-5.41.71-.4,1.72-.36,2.4.11,1.56,1.12.24,4.08.5,7.39.41,5.19,4.62,9.86,6.37,9.33,2.12-.65,2.22-9.57,1.46-13.96-.06-.26-.42-2.38-.58-5.25-.1-1.67-.15-2.71.05-4.11.24-1.95.59-4.54,2.31-5.52.24-.13.61-.3,3.07-.28.88,0,1.75.01,2.62.08,1.98.15,6.43-.69,9.83-2.99,5.77-3.91,6.81-10.87,7.1-12.85.24-1.61.72-4.81-.06-8.29.04.07.1.13.16.21,1.07,1.38,2.53,2.43,5.46,4.55,1.29.91,2.39,1.63,3.23,2.13.28-1.77.28-3.31.17-4.46-.19-2.1-.34-3.84-1.45-5.54-.72-1.11-2.07-2.55-2.77-3.3-.99-1.04-1.59-1.58-1.43-2.14.18-.7,1.45-.94,2.14-1.09.81-.16,1.75-.16,2.95.09.94.2,2.54.68,4.3,1.94.94.48,2.24,1.01,3.84,1.35,1.84.38,3.44.35,4.56.25-1.25-3.75-3.24-5.84-4.31-6.76-1.19-1.07-2.59-2.32-4.66-3.04-1.14-.4-2.2-1.02-3.31-1.5-.73-.33-1.36-.58-1.51-1.17-.19-.61.23-1.23.44-1.53,0,0,2.37-.09,3.58,0,2.13.15,3.65,1.13,5.2,2.13,1.16.75,1.53,1.18,5.8,5.43,2.92,2.9,2.74,2.7,3.5,3.49.84.87,2.72,2.85,5.02,5.54,1.37,1.59,2.73,3.17,4.41,5.44,1.19,1.61,2.12,2.99,2.78,4.01,5.97-.94,11.97-1.88,17.96-2.81-2.03-2.9-3.88-5.2-5.29-6.89-2.42-2.86-4.26-5.04-7.18-7.48-1.26-1.05-3.16-2.69-5.99-4.36-1.1-.64-5.4-3.12-8.71-6.11-.49-.43-1.33-1.21-1.15-1.91.2-.71,1.38-1.1,2.32-1.08,1.03.03,1.47.52,3.5,1.86,0,0,1.84,1.24,3.67,2.23,1.33.72,1.71.82,3.38,1.6,3.13,1.46,3.07,1.78,6.64,3.56,2.36,1.18,2.84,1.26,4.38,2.23,1.41.87,2.5,1.72,3.23,2.3,4.45-5.62,8.9-11.23,13.36-16.83-.93-.07-2.24-.15-3.84-.26-3.42-.25-3.91-.3-4.29-.35-2.41-.32-2.47-.61-4.92-.97-1.68-.25-1.63-.11-4.92-.43-2.72-.26-4.07-.4-5.38-.71-2.14-.51-1.84-.75-4.47-1.4-.86-.23-2.03-.48-3.48-1.16-1.86-.88-1.97-1.39-1.99-1.61.01-.27.17-.51,1.08-1.26,1.07-.87,1.61-1.3,2.41-1.7,1.41-.7,2.09-.65,4.02-1.18.74-.2,1.77-.57,3.85-1.35,4.15-1.54,4.05-1.72,5.71-2.17.84-.22,2.14-.4,4.73-.81.51-.06,2.32-.33,4.75-.62,1.35-.16,2.51-.29,3.39-.38-5.4-5.43-10.81-10.87-16.22-16.32-1.18.99-3.05,2.49-5.45,4.22-2.32,1.67-2.65,1.75-5.08,3.51-3.22,2.32-4.83,3.48-6.5,5.11-1.11,1.09-1.92,2.16-3.67,3.32-.53.36-2.88,1.92-3.48,1.35-.53-.53.62-2.54.88-3,.91-1.6,2.33-2.86,5.14-5.33.9-.79,1.88-1.63,3.09-2.93.26-.26.43-.46,1.02-1.11.78-.84,1.24-1.27,2.19-2.32,2.87-3.17,4.57-5.19,6.06-7.17,1.48-1.97,1.95-2.76,2.32-3.58.82-1.83,1.12-3.5,1.23-4.64-5.86-.26-11.74-.53-17.61-.77-1.03,3.1-2.73,7.32-5.59,11.91-.63,1-2.53,3.43-6.33,8.33-4.79,6.16-7.42,9.37-10.89,9.85-.34.06-2.02.29-2.33-.35-.27-.53.52-1.44,1.68-2.77.88-1,1.64-1.67,1.96-1.97,1.82-1.6,2.21-1.56,3.3-2.6,1.34-1.26,2.05-2.54,2.5-3.4.95-1.78,1.4-3.44,1.6-4.64-2.18.19-3.96.61-5.27.98-1.64.47-2.76.81-4.12,1.62-.87.53-.73.59-2.49,1.79-.56.39-.84.56-1.07.7-.33.19-.43.29-.61.33-.5.07-.96-.33-1.11-.45-.69-.6-1.03-2.82-.01-5.7,1.6-4.5,4.51-4.85,5.68-8.57.55-1.73.53-3.62-.01-5.7-3.29,2.59-6.13,4.88-8.53,6.82,0,0-.2.14-.5.41-.21-.36-.46-.74-.73-1.15-2.06-3.19-3.36-5.25-5.95-6.8-3.56-2.14-6.72-2.51-6.72-2.51-1.41-.18-2.42-.05-3.15-.83-.99-1.04-.36-2.58-.41-4.42-.07-3.57-2.45-6.28-3.6-7.62-.51-.6-4.92-5.52-10.34-5.28-2.52.11-4.67,1.32-7.43.17-1.2-.51-1.39-.98-1.43-1.22-.17-.91,1.31-1.77,2.86-2.84,3.06-2.13,2.75-2.59,5.19-4.3,3.99-2.83,8.67-4.31,11.62-5.05-.77-.85-2.19-2.15-4.24-3-4.05-1.67-7.82-.47-8.61-.18-3.6,1.25-4.04,3.38-9.17,5.41-1.11.46-2.55.93-3.55.25-.84-.55-.93-1.61-1.25-2.92,0,0-.37-1.62-2.37-5.77-.36-.73-2.94-6.11-7.8-7.82-1.7-.58-2.28-.25-6.51-1.41-2.5-.69-3.71-1.22-3.81-1.92-.01-.16,0-.6,1.37-1.6,1.96-1.4,3.85-1.86,3.85-1.86,7.97-1.92,8.95-2.27,9.88-2.8,1-.54,2.46-1.56,3.91-3.47-2.02-2.52-4.14-3.36-5.14-3.67-3.75-1.15-7.44.42-7.86.6-1.95.85-3.15,2.08-5.67,2.12-.48.03-1.73.05-1.95-.47-.27-.67,1.45-1.83,3.39-3.37,3.76-3,3.06-3.3,7.51-7.06,1.28-1.09,3.19-2.6,5.64-4.29-.8-.43-1.96-.92-3.38-1.26-2.08-.51-3.74-.39-4.75-.32-1.11.09-3.32.25-5.46,1.28-2.88,1.4-4.31,3.76-5.8,6.23-2.68,4.44-2.92,7.62-4.59,7.67-.9.04-1.63-.85-2.4-1.76-1.66-1.96-1.69-3.73-2.5-6.1-.3-.9-1.29-3.76-3.47-6.01-3.13-3.23-7.82-4.17-8.82-4.37-2.63-.54-4.51-.33-5.08-1.5-.42-.81-.06-1.94.61-2.58.97-.97,2.52-.68,5.92-.2,0,0,3.58.49,6.48.78,4.05.39,6.12.57,8.29-.15,2.25-.78,3.79-2.15,4.68-3.13-.6-.88-1.5-2.09-2.76-3.4-1.76-1.84-3.29-3.44-5.6-4.32-1.17-.45-3.25-.39-7.43-.25-5.1.15-5.77.54-6.23.94-.93.82-1.31,1.91-3.16,3.17-1.22.8-1.58.7-1.71.6-.57-.37-.29-1.94.05-2.91.86-2.47,2.82-3,4.75-4.75,1.66-1.5,2.6-3.9,4.47-8.64.78-1.98,1.74-4.78,2.52-8.25-1.08-.17-2.75-.29-4.63.23-.77.2-2.64.82-5.62,3.65-1.69,1.62-4.34,4.19-6.3,8.5-2.16,4.68-2.09,8.39-2.86,8.34-.6-.03-.66-2.22-1.84-5.84-.92-2.82-1.92-5.87-4.37-8.62-.56-.61-3.5-3.88-7.66-5.12-1.43-.42-2.54-.88-4.78-1.83-1.64-.69-2.34-1.05-2.39-1.55-.1-.98,2.31-1.86,2.66-1.99,2.64-.96,4.39-.38,7.19-.39,2.92-.02,5.05-.67,7-1.26,2.04-.62,5.07-1.84,8.32-4.36-.56-1.01-1.59-2.49-3.3-3.51-.7-.41-1.94-1.02-7.25-1.12-4.61-.09-6.9-.13-8.4.46-2.68,1.09-4.09,2.93-5.98,2.24-.16-.04-1.01-.35-1.31-1.08-.3-.76.04-1.7,1.55-3.53,1.61-1.99,2.66-2.67,4.01-4.03.57-.54,2.42-2.43,3.9-4.97.8-1.37,1.8-3.53,2.34-6.52-2.78.65-4.96,1.55-6.41,2.24-4.46,2.08-8.21,3.84-9.99,7.55-.33.7-1.09,2.5-2.6,4.78-1.46,2.24-2,2.47-2.42,2.43-1.06-.11-1.29-2.11-2.56-4.26-1.9-3.18-4.87-4.74-5.92-5.29-4.13-2.14-6.65-.84-9.99-3.66-.73-.61-1.77-1.51-1.6-2.33.24-1.27,3.08-1.21,7.15-2.36,0,0,3.65-1.04,6.52-2.7,2.01-1.13,5.14-3.48,7.65-8.6-1.67-.55-4.17-1.22-7.23-1.39-2.31-.14-4.85.07-9.99,1.35-6.06,1.51-9.09,2.27-11.77,3.74-1.97,1.09-3.67,2.4-5.17,3.96.45-.8.33-.76,1.15-1.96,1.18-1.79,1.25-1.63,1.79-2.51.8-1.34,1.12-2.47,1.59-4.11.37-1.31.78-3.1.97-5.29-1.21.22-2.86.68-4.65,1.64-.85.46-2.14,1.17-3.39,2.52-1.02,1.09-.99,1.49-2.59,3.31-.3.33-.97,1.09-1.95,1.96-1.34,1.17-2.25,1.97-2.78,1.7-.63-.31-.42-1.98-.36-2.32.46-3.47,3.66-6.11,9.8-10.93,4.88-3.82,7.3-5.74,8.3-6.37,4.57-2.88,8.79-4.6,11.88-5.65-.28-5.89-.57-11.75-.84-17.62-1.15.13-2.82.43-4.65,1.27-.83.37-1.61.85-3.57,2.33-1.98,1.5-3.99,3.2-7.14,6.09-1.04.96-1.47,1.42-2.3,2.2-.65.6-.85.77-1.11,1.03-1.29,1.22-2.12,2.19-2.92,3.1-2.45,2.8-3.71,4.24-5.31,5.16-.46.26-2.46,1.42-2.99.89-.57-.6.98-2.95,1.35-3.5,1.14-1.74,2.2-2.56,3.29-3.67,1.62-1.69,2.77-3.3,5.09-6.54,1.73-2.43,1.8-2.76,3.47-5.09,1.71-2.43,3.21-4.29,4.19-5.47-5.47-5.39-10.94-10.77-16.4-16.15-.08.88-.21,2.04-.36,3.39-.28,2.43-.53,4.22-.6,4.75-.39,2.6-.58,3.89-.8,4.72-.42,1.68-.61,1.58-2.13,5.74-.75,2.07-1.13,3.11-1.33,3.85-.52,1.93-.46,2.61-1.16,4.02-.4.8-.82,1.34-1.69,2.41-.73.9-.98,1.07-1.24,1.07-.23,0-.74-.11-1.63-1.96-.69-1.45-.95-2.62-1.16-3.49-.66-2.62-.92-2.31-1.45-4.46-.3-1.3-.43-2.65-.73-5.36-.32-3.31-.19-3.24-.45-4.92-.38-2.45-.66-2.51-1-4.92-.04-.39-.1-.87-.37-4.29-.12-1.6-.21-2.91-.28-3.84-5.58,4.49-11.17,8.97-16.77,13.45.6.71,1.44,1.81,2.32,3.22.97,1.54,1.06,2.02,2.25,4.37,1.81,3.56,2.12,3.5,3.61,6.61.79,1.67.87,2.07,1.61,3.39,1,1.82,2.25,3.66,2.25,3.66,1.35,2.02,1.85,2.46,1.88,3.49.03.94-.35,2.13-1.06,2.33-.7.19-1.48-.65-1.91-1.14-2.99-3.32-5.49-7.6-6.15-8.68-1.69-2.82-3.33-4.71-4.39-5.96-2.46-2.9-4.65-4.74-7.52-7.14-1.7-1.41-4-3.24-6.91-5.26-.9,5.99-1.8,11.98-2.72,17.98,1.03.65,2.41,1.58,4.03,2.76,2.27,1.66,3.86,3.01,5.47,4.37,2.7,2.29,4.67,4.17,5.55,5.01.8.74.6.57,3.49,3.47,4.29,4.27,4.72,4.64,5.48,5.79,1,1.54,1.99,3.06,2.15,5.19.1,1.21.02,3.58.02,3.58-.3.21-.91.63-1.52.45-.57-.17-.84-.78-1.16-1.52-.5-1.1-1.12-2.16-1.53-3.29-.73-2.07-1.99-3.46-3.05-4.66-.94-1.05-3.03-3.04-6.8-4.26-.1,1.13-.11,2.71.27,4.56.35,1.6.88,2.89,1.36,3.83,1.27,1.75,1.76,3.35,1.96,4.29.26,1.2.26,2.14.11,2.95-.14.68-.37,1.94-1.08,2.14-.56.16-1.08-.45-2.14-1.42-.76-.7-2.2-2.05-3.32-2.76-1.71-1.11-3.45-1.25-5.55-1.43-1.16-.1-2.68-.11-4.46.2.52.83,1.23,1.94,2.15,3.22,2.13,2.92,3.19,4.37,4.58,5.44,1.6,1.22,3.11,1.82,3.94,3.56.09.17.23.54.54,1.25.34.8.62,1.5.85,2.01-.56-.58-1.16-1.12-1.76-1.61-5.36-4.19-11.74-3.21-14.27-2.82-2,.32-8.94,1.38-12.82,7.16-2.3,3.43-3.1,7.87-2.94,9.85.07.87.09,1.74.09,2.62.03,2.45-.15,2.84-.28,3.08-.98,1.73-3.55,2.08-5.51,2.34-1.4.2-2.42.15-4.11.07-2.87-.15-4.98-.52-5.25-.56-4.39-.73-13.31-.61-13.96,1.53-.52,1.76,4.16,5.94,9.37,6.31,3.31.25,6.24-1.07,7.37.48.49.65.52,1.68.12,2.4-.74,1.43-2.93,1.23-5.4,1.88-3.55.91-5.9,3.09-7.02,4.11-.71.66-5.24,4.86-5.47,10.12-.04.67-.05,2.68-.36,5.56-.24,2.35-.39,2.77-.68,3.08-1.61,1.7-6.42-.47-8.89-1.42-4.1-1.57-10.33-3.06-19.37-2.24,1.13,1.27,2.64,2.8,4.52,4.52,3.64,3.26,5.43,4.89,7.49,5.43,2.44.64,3.96.05,6.16,1.5.27.18,2.27,1.49,1.97,2.48-.27.87-2.09.93-4.8,1.42-2.94.52-5.49.97-7.17,1.86-5.45,2.94-4.62,12.22-7.46,12.47-.87.1-1.64-.78-3.21-2.55-1.67-1.89-2.42-3.55-2.99-4.57-2.03-3.79-5.43-5.81-6.92-6.71-4.3-2.54-8.82-2.72-11.63-2.55,1.08,5.49,3.17,8.88,4.9,10.94,1.63,1.99,4.96,5.25,8.35,8.14,2.44,2.12,4.1,3.34,3.8,3.93-.41.87-4.36-.19-6.19-.61-4.77-1.1-11.81-1.77-21.75.18,1.33,1.67,3.66,4.13,7.27,5.67,6.27,2.71,13.22,1.98,13.4,3.8.03.34-.2.66-.41.96-.98,1.39-3.15,1.28-4.36,1.41-4.08.41-7.15,4.38-7.63,5.01-3.24,4.2-1.66,8.96-4.14,9.82-.9.33-1.98.02-2.63-.42-1.04-.7-1.3-1.92-1.5-2.92-.46-2.11-1.21-5.39-1.61-6.64-.73-2.44-2.15-3.82-4.54-6.19-1.49-1.48-3.97-3.58-7.63-5.29.03,1.63.15,3.85.64,6.42.66,3.51,1.14,6,2.63,8.34,3.45,5.34,9.54,5.65,9.29,8.65-.07.7-.48,1.51-1.09,1.76-1.23.49-2.83-1.53-4.13-2.69-3-2.67-6.87-2.79-12.11-2.95-6.38-.17-11.45,1.64-14.28,2.91,2.72,3.56,5.5,5.16,7.59,5.96,3.85,1.45,11.2,2.41,12.31,2.55,2.05.25,4.12.46,4.31,1.42.2,1.03-1.95,2.36-2.26,2.56-1.84,1.1-3.49,1.13-4.76,1.29,0,0-4.08.47-7.72,2.93-.38.27-5.95,4.12-6.31,9.46-.1,1.55.24,3.08-.47,5.71-.41,1.56-.71,2.6-1.55,3.1-2.06,1.22-6.59-2.18-6.89-2.42-3.04-2.37-3.48-4.31-6.49-8.03-1.32-1.62-3.19-3.63-5.72-5.69-.71,1.34-2.54,5.3-1.4,9.99.99,4.15,3.81,6.69,4.3,7.12,1.46,1.28,2.81,1.89,4.2,2.56-.19-.98-.43-2.17-.72-3.48,1.67.24,2.85.82,3.57,1.25,1.3.78,2,1.65,3.4,3.39,1.2,1.48,1.8,2.25,1.98,3.22.22,1.15-.18,1.75.28,2.58.11.2.23.37.39.53-.79-.53-1.36-1.01-1.66-1.51-.06-.09-.27-.53-.7-1.04-.31-.4-.64-.7-1.22-1.27-1.99-2.06-3.69-2.9-5.31-3.67.14.66.26,1.23.35,1.71,1.01,5.22.87,5.82,1.71,7.23,1,1.65,2.29,2.65,1.91,3.49-.31.63-1.37.72-1.45.72-.7.04-1.17-.28-2.13-.89-2.14-1.34-1.51-.77-3.14-1.87-1.79-1.18-1.63-1.25-2.5-1.78-1.36-.81-2.48-1.13-4.13-1.6-1.31-.37-3.11-.76-5.28-.96.22,1.21.65,2.86,1.62,4.63.46.85,1.17,2.14,2.5,3.4,1.11,1.02,1.51.99,3.31,2.59.34.28,1.11.97,1.97,1.96,1.17,1.31,1.97,2.22,1.72,2.76-.31.63-2,.4-2.32.36-3.47-.46-6.13-3.68-10.93-9.8-3.82-4.88-5.75-7.32-6.38-8.31-2.88-4.57-4.6-8.79-5.65-11.88-5.87.3-11.75.57-17.61.85.12,1.14.42,2.81,1.27,4.65.37.83.82,1.61,2.33,3.57,1.49,1.96,3.19,3.97,6.09,7.14.96,1.04,1.39,1.47,2.19,2.29.61.67.77.85,1.04,1.12,1.2,1.28,2.19,2.12,3.09,2.9,2.82,2.46,4.24,3.71,5.16,5.31.26.46,1.42,2.46.89,2.99-.6.57-2.94-.96-3.48-1.33-1.76-1.15-2.57-2.22-3.69-3.3-1.67-1.61-3.3-2.77-6.53-5.08-2.43-1.73-2.77-1.82-5.11-3.47-2.41-1.72-4.27-3.23-5.46-4.21-5.38,5.49-10.76,10.95-16.13,16.41.88.08,2.03.19,3.38.35,2.43.28,4.24.55,4.74.62,2.61.38,3.92.58,4.75.8,1.68.42,1.57.6,5.74,2.13,2.07.75,3.1,1.15,3.84,1.32,1.93.52,2.63.48,4.02,1.16.8.4,1.34.82,2.41,1.69.91.74,1.07.98,1.09,1.25-.01.21-.11.74-1.98,1.62-1.45.69-2.61.96-3.48,1.18-2.62.66-2.32.9-4.47,1.44-1.28.32-2.64.45-5.36.73-3.29.34-3.24.19-4.9.47-2.45.38-2.51.66-4.92,1-.38.04-.87.1-4.29.37-1.6.12-2.94.21-3.85.27,4.48,5.59,8.98,11.19,13.46,16.78.71-.6,1.79-1.46,3.2-2.33,1.55-.96,2.02-1.06,4.37-2.25,3.56-1.81,3.5-2.12,6.62-3.6,1.67-.79,2.04-.87,3.39-1.61,1.81-1.02,3.66-2.25,3.66-2.25,2.01-1.36,2.45-1.86,3.48-1.89.96-.02,2.14.37,2.33,1.06s-.65,1.48-1.12,1.93c-3.32,2.99-7.6,5.49-8.68,6.15-2.82,1.69-4.73,3.32-5.99,4.39-2.89,2.45-4.71,4.65-7.13,7.53-1.41,1.67-3.24,4-5.26,6.89,6.01.91,11.98,1.83,17.98,2.72.67-1.01,1.58-2.41,2.76-4.03,1.66-2.27,3.01-3.86,4.38-5.46,2.29-2.7,4.15-4.69,4.99-5.56.74-.77.58-.59,3.47-3.49,4.27-4.29,4.64-4.72,5.81-5.46,1.52-1.02,3.05-2,5.17-2.17,1.21-.1,3.58-.02,3.58-.02.21.3.63.91.45,1.52-.16.59-.78.84-1.51,1.17-1.11.49-2.16,1.12-3.3,1.52-2.07.76-3.46,1.99-4.64,3.06-1.05.94-3.04,3.03-4.26,6.8,1.13.1,2.71.11,4.55-.28,1.61-.33,2.89-.88,3.85-1.35,1.74-1.29,3.33-1.78,4.27-1.98,1.2-.26,2.14-.23,2.97-.09.67.13,1.94.37,2.13,1.06.16.56-.44,1.1-1.42,2.14-.7.76-2.05,2.23-2.76,3.32-1.11,1.71-1.25,3.45-1.43,5.55-.08,1.17-.09,2.7.2,4.46.84-.5,1.95-1.22,3.22-2.15,2.9-2.12,4.38-3.18,5.44-4.58.01-.01.04-.04.04-.07.46,2.02-.96,3.34-1.03,5.52-.07,1.58.85,3.01,2.68,5.88,2.08,3.18,3.38,5.24,5.98,6.8,3.53,2.14,6.72,2.51,6.72,2.51,1.4.17,2.41.07,3.14.82.99,1.04.36,2.58.4,4.43.08,3.55,2.45,6.28,3.61,7.61.51.6,4.93,5.54,10.34,5.28,2.52-.11,4.67-1.32,7.44-.16,1.18.5,1.36.98,1.41,1.21.17.94-1.31,1.8-2.85,2.86-3.08,2.12-2.76,2.57-5.19,4.3-4,2.82-8.69,4.3-11.64,5.03.77.85,2.17,2.16,4.24,3,4.05,1.67,7.82.47,8.63.19,3.59-1.26,4.01-3.38,9.16-5.43,1.1-.44,2.55-.93,3.55-.25.83.57.95,1.62,1.25,2.95,0,0,.39,1.61,2.38,5.76.34.71,2.92,6.1,7.8,7.82,1.68.57,2.25.25,6.49,1.42,2.51.68,3.72,1.2,3.8,1.9.03.14.03.6-1.35,1.59-1.96,1.4-3.85,1.86-3.85,1.86-7.97,1.92-8.95,2.3-9.86,2.82-1.01.56-2.49,1.56-3.91,3.47,2.02,2.52,4.14,3.36,5.13,3.65,3.77,1.16,7.43-.4,7.84-.59,1.97-.86,3.16-2.09,5.68-2.14.5-.02,1.73-.05,1.95.47.29.68-1.45,1.83-3.39,3.37-3.76,3-3.06,3.3-7.51,7.06-1.28,1.09-3.19,2.6-5.64,4.29.81.44,1.94.94,3.37,1.28,2.1.49,3.75.38,4.76.3,1.1-.07,3.34-.24,5.46-1.28,2.88-1.4,4.31-3.76,5.8-6.23,2.68-4.44,2.92-7.62,4.59-7.67.9-.02,1.64.87,2.41,1.78,1.66,1.96,1.66,3.73,2.48,6.08.32.91,1.31,3.78,3.47,6.01,3.13,3.23,7.82,4.17,8.81,4.39,2.64.52,4.52.32,5.09,1.49.4.83.05,1.95-.59,2.6-1,.97-2.54.66-5.93.19,0,0-3.58-.49-6.46-.77-4.07-.4-6.13-.58-8.3.13-2.25.78-3.79,2.15-4.68,3.13.6.91,1.52,2.11,2.76,3.4,1.76,1.84,3.29,3.44,5.59,4.34,1.18.44,3.25.39,7.43.25,5.13-.15,5.79-.56,6.23-.94.93-.82,1.32-1.93,3.17-3.16,1.22-.83,1.57-.72,1.71-.63.57.37.29,1.94-.04,2.92-.86,2.47-2.82,3-4.75,4.75-1.69,1.5-2.61,3.89-4.47,8.64-.78,1.98-1.74,4.78-2.53,8.23,1.08.17,2.75.29,4.63-.22.77-.2,2.62-.8,5.62-3.65,1.69-1.62,4.35-4.17,6.3-8.5,2.14-4.67,2.09-8.39,2.86-8.34.61.04.65,2.24,1.85,5.86.92,2.82,1.92,5.87,4.36,8.6.56.64,3.49,3.9,7.66,5.12,1.43.42,2.54.91,4.78,1.83,1.66.71,2.34,1.05,2.39,1.55.1,1.01-2.29,1.87-2.65,2-2.65.95-4.41.37-7.22.39-2.91,0-5.05.67-6.98,1.24-2.05.63-5.07,1.84-8.3,4.37.54,1,1.56,2.49,3.3,3.51.67.41,1.94,1.02,7.22,1.12,4.62.07,6.93.13,8.41-.48,2.66-1.08,4.1-2.92,5.98-2.24.14.06,1.01.35,1.33,1.09.29.74-.07,1.7-1.56,3.54-1.61,1.96-2.65,2.66-4.01,4-.58.56-2.43,2.44-3.9,4.97-.78,1.39-1.79,3.54-2.35,6.54,2.79-.66,4.96-1.55,6.44-2.24,4.46-2.08,8.2-3.84,9.96-7.55.35-.7,1.11-2.51,2.6-4.78,1.48-2.26,2.03-2.47,2.45-2.43,1.04.1,1.27,2.09,2.55,4.24,1.89,3.19,4.86,4.75,5.93,5.31,4.13,2.14,6.63.83,9.98,3.64.73.61,1.79,1.52,1.62,2.35-.25,1.26-3.09,1.19-7.17,2.37,0,0-3.63,1.02-6.53,2.67-2.01,1.13-5.14,3.51-7.67,8.62,1.68.54,4.18,1.2,7.23,1.39,2.32.15,4.88-.07,9.99-1.35,3.31-.84,5.72-1.43,7.65-2.06.64.01,1.23,0,1.75-.05,2.08-.18,3.82-.32,5.53-1.44,1.1-.73,2.55-2.07,3.32-2.79,1.04-.99,1.58-1.59,2.14-1.43.7.18.94,1.45,1.06,2.14.16.81.19,1.75-.06,2.95-.2.94-.68,2.54-1.97,4.3-.45.94-.99,2.23-1.32,3.84-.38,1.84-.36,3.42-.27,4.56,3.78-1.25,5.84-3.24,6.79-4.31,1.07-1.19,2.29-2.59,3.04-4.66.4-1.14,1.02-2.2,1.5-3.31.31-.71.57-1.34,1.17-1.51.6-.17,1.23.23,1.51.45,0,0,.11,2.35,0,3.57-.15,2.13-1.13,3.65-2.13,5.2-.77,1.17-1.19,1.54-5.45,5.82-2.89,2.9-2.7,2.74-3.47,3.49-.88.86-2.85,2.72-5.54,5.02-1.59,1.37-3.17,2.73-5.44,4.41-1.61,1.19-3,2.1-4.01,2.78.93,5.99,1.88,11.97,2.81,17.96,2.89-2.02,5.2-3.88,6.86-5.29,2.89-2.42,5.07-4.26,7.5-7.16,1.05-1.26,2.67-3.17,4.36-6.01.64-1.07,3.14-5.38,6.11-8.71.43-.46,1.22-1.31,1.92-1.13.7.18,1.1,1.38,1.08,2.32-.03,1.03-.54,1.48-1.87,3.48,0,0-1.22,1.86-2.23,3.67-.72,1.36-.81,1.73-1.6,3.41-1.45,3.11-1.78,3.07-3.55,6.63-1.18,2.36-1.29,2.84-2.23,4.38-.87,1.41-1.72,2.5-2.32,3.21,5.6,4.46,11.23,8.93,16.85,13.38.05-.91.14-2.25.25-3.85.23-3.41.29-3.89.35-4.29.32-2.41.61-2.47.97-4.92.27-1.67.12-1.61.44-4.91.25-2.71.39-4.08.7-5.36.52-2.15.77-1.86,1.42-4.48.21-.87.47-2.01,1.16-3.48.87-1.87,1.39-1.97,1.59-1.97.29,0,.53.16,1.27,1.07.86,1.08,1.3,1.61,1.7,2.41.69,1.4.65,2.09,1.16,4.03.2.74.57,1.77,1.35,3.82,1.55,4.16,1.71,4.06,2.15,5.73.22.84.43,2.14.82,4.75.07.5.35,2.31.64,4.73.16,1.35.28,2.49.35,3.39,5.45-5.42,10.88-10.82,16.33-16.21-.99-1.18-2.49-3.05-4.22-5.45-1.66-2.33-1.75-2.68-3.49-5.1-2.32-3.22-3.49-4.84-5.11-6.5-1.09-1.11-2.16-1.92-3.33-3.66-.36-.56-1.9-2.89-1.33-3.49.53-.53,2.54.62,3,.88ZM401.32,347.96c-3.2.19-5.85-.38-7.7-.96,3.12-.26,6.9-1.04,9.62-3.38,2.2-1.89,2.27-3.58,4.39-4.69,1.72-.9,4.69-1.37,10.18.61-.85,1-6.85,7.85-16.49,8.42ZM340.93,394.07c-1.02,2.17-2.83,3.49-4.27,4.29-.65-1.24-1.79-3.84-1.44-7.13.68-6.49,6.49-9.68,7.11-10,.97-.51,3.63-1.86,7.13-1.44,1.93.23,3.4.92,4.28,1.42-.52.78-1.43,1.92-2.85,2.86-3.71,2.46-6.75.77-8.55,2.87-1.58,1.84.12,3.89-1.41,7.13ZM377.7,357.45c-.93.2-4.28,1-7.76,3.94-3.82,3.22-5.8,7.31-6.32,6.79-.19-.19-.05-.85.01-1.13,1.35-6.11,2.15-9.74,5.35-12.35,3.98-3.26,11.15-4.48,14.54-.21.78.99,1.21,2.07,1.45,2.85-1.79-.3-4.4-.51-7.27.11ZM396.43,339.05c-1.05-.69.52-7.68,5.68-11.42,5.85-4.24,15.34-3.57,17.11-.04.38.76.55,1.95,0,2.85-1.54,2.54-6.83-.3-12.83,1.46-6.53,1.91-8.95,7.82-9.97,7.15ZM451.08,286.99c.29.06.55.76.66,1.06,2.37,6.56,3.78,10.46,2.34,14.91-1.79,5.56-7.77,11.23-13.48,9.38-1.32-.43-2.36-1.17-3.05-1.75,1.86-.85,4.42-2.3,6.74-4.69.75-.77,3.41-3.64,4.92-8.58,1.66-5.42,1.08-10.49,1.87-10.33ZM446.69,267.46c2.21-.25,2.67-.25,3.31-.06.37.08,2.13.58,2.26,1.62.12.86-.97,1.6-1.42,1.94-1.12.79-2.22.92-3.58,1.08-1.25.15-2.89.31-4.76-.36-.83-.31-2.07-.75-2.14-1.51-.07-.87,1.47-1.61,2.02-1.89.6-.32,1.18-.47,4.32-.82ZM445.21,258.48c2.21-.25,2.69-.25,3.32-.08.37.11,2.14.59,2.26,1.62.1.87-.97,1.63-1.44,1.96-1.11.77-2.21.93-3.56,1.06-1.25.15-2.91.32-4.76-.36-.83-.28-2.07-.75-2.13-1.49-.07-.87,1.44-1.61,1.99-1.89.61-.3,1.18-.47,4.32-.82ZM418.95,212.94c5.12,6.17,9.39,5.03,14.33,11.15,4.33,5.36,2.69,8.28,7.32,13.37,3.39,3.73,7.43,5.65,10.39,6.69-9.05,1.7-13.26-.17-15.43-2.24-5.62-5.39-2.24-16.73-6.77-17.82-2.3-.56-3.54,2.26-7.01,2.22-5.23-.06-8.76-6.54-9.84-11.15-1.36-5.81.62-11.06,1.65-13.36.65,2.84,2.04,7.15,5.35,11.14ZM389.8,176.01c.45,1.99,1.34,4.8,3.2,7.56.6.89,2.86,4.08,7.39,6.58,4.96,2.74,10.05,3.21,9.73,3.95-.12.27-.86.38-1.18.43-6.9.97-11.01,1.55-15.07-.77-5.07-2.9-9.39-9.91-6.41-15.12.69-1.2,1.63-2.07,2.34-2.63ZM371.38,163.52c5.4,1.73,10.48,1.22,10.31,2.01-.06.29-.77.54-1.07.64-6.59,2.28-10.51,3.64-14.94,2.14-5.53-1.87-11.12-7.92-9.19-13.61.45-1.31,1.2-2.35,1.79-3.03.83,1.87,2.24,4.45,4.6,6.8.76.76,3.59,3.45,8.52,5.04ZM353.25,143.69c2.94-1.55,5.51-1.11,7.97-.7,3.44.58,5.57,2.02,7.37,3.26,3.13,2.16,4.69,3.23,5.08,5.41.54,3.03-1.07,7.58-1.2,7.91h0s-.67-4.89-2.79-7.56c-1.54-1.94-3.62-2.43-7.37-3.26-2.95-.65-7.54-1.3-13.65-.75.69-1.06,2.18-3.04,4.58-4.31ZM344.09,116.85c1.69,2.72,2.46,5.32,2.84,7.23-1.71-2.62-4.21-5.57-7.57-6.84-2.71-1.03-4.23-.29-6.22-1.62-1.61-1.08-3.44-3.46-4.32-9.24,1.28.27,10.17,2.26,15.27,10.47ZM326.89,109.03c.71,8.74,3.38,12.57,5.68,14.45,4.2,3.45,9.52,2.3,12.3,6.45,1.25,1.88,1.39,3.94,1.35,5.22-2.3.2-7.31.23-12.43-3.24-7.4-5.01-12.72-15.75-10.13-20.48.76-1.39,2.08-2.05,3.24-2.4ZM289.71,82.88c6.76-1.71,10.78-2.73,15.07-.86,5.35,2.33,10.41,8.84,8,14.34-.56,1.27-1.4,2.24-2.04,2.86-.67-1.93-1.85-4.63-4-7.17-.7-.82-3.28-3.75-8.06-5.74-5.23-2.19-10.33-2.11-10.1-2.88.09-.28.82-.47,1.12-.55ZM268.21,79.13c1.04.13,1.53,1.89,1.65,2.26.17.63.17,1.11-.06,3.32-.32,3.12-.5,3.71-.8,4.32-.26.54-1.01,2.07-1.88,2-.74-.06-1.22-1.29-1.5-2.12-.67-1.87-.52-3.51-.38-4.76.14-1.37.28-2.45,1.05-3.57.33-.47,1.08-1.54,1.94-1.46ZM259.24,77.71c1.03.14,1.53,1.89,1.63,2.25.17.63.17,1.11-.06,3.32-.33,3.14-.5,3.71-.8,4.32-.27.56-1.01,2.1-1.86,2.02-.77-.06-1.22-1.29-1.52-2.14-.69-1.85-.52-3.51-.4-4.75.15-1.36.28-2.45,1.06-3.58.34-.46,1.08-1.54,1.95-1.45ZM200.51,126.25c-2.69,6.92-10.9,12.18-15.66,10.02-1.39-.63-2.29-1.8-2.86-2.85,7.52-1,10.27-3.57,11.39-5.73,2.06-3.95-.18-8.73,2.82-11.42,1.36-1.21,3.14-1.42,4.27-1.44.71,2.08,1.89,6.62.03,11.41ZM146.44,177.72c1.5.89.28,8.22-4.25,12.84-1.69,1.73-4.93,3.06-11.39,5.73-4.73,1.95-6.24,2.2-7.13,1.44-1.22-1.04-1.04-3.78-.01-5.7,1.86-3.5,5.75-2.98,11.39-5.73,7.74-3.77,9.99-9.41,11.39-8.58ZM217.52,80.57c5.85-4.24,15.34-3.57,17.11-.04.38.76.55,1.95,0,2.85-1.54,2.54-6.83-.3-12.83,1.46-6.53,1.91-8.95,7.82-9.97,7.15-1.05-.69.52-7.68,5.68-11.42ZM184.8,116.3c2-1.64,4.11-2.45,5.7-2.87-1.9,1.66-3.92,4.05-4.26,7.14-.27,2.5.73,3.85.01,5.7-.58,1.5-2.25,3.26-7.12,4.3-.06-1.17-.36-9.32,5.67-14.27ZM159.21,147.74c.97-.51,3.63-1.86,7.13-1.44,1.93.23,3.4.92,4.28,1.42-.52.78-1.43,1.92-2.85,2.86-3.71,2.46-6.75.77-8.55,2.87-1.58,1.84.12,3.89-1.41,7.13-1.02,2.17-2.83,3.49-4.27,4.29-.65-1.24-1.79-3.84-1.44-7.13.68-6.49,6.49-9.68,7.11-10ZM93.48,213.21c-.44.48-1.86,2.24-4.27,4.29-1.77,1.51-2.66,2.27-3.06,1.97-1.01-.74-.63-7.86,4.38-10.96,1.24-.77,6.68-4.13,12.68.37,1.43,1.07,2.54,2.32,3.28,3.26-8.14-1.87-11.5-.59-13.01,1.07ZM76.95,236.45c.31.2.64.41,1.01.64-.34-.14-.71-.34-1.01-.64ZM97.36,227.78c-3.22-.18-5.59-2.04-6.9-3.35,2.28.17,5.63.04,8.7-1.89,1.91-1.2,2.76-2.49,5.27-5.3,1.55-1.73,3.89-4.21,7.03-7.07.08,1.74,0,5.12-1.84,8.71-.3.58-4.92,9.31-12.26,8.89ZM80.59,260.67c-.47-.33-1.54-1.08-1.44-1.92.13-1.04,1.88-1.54,2.26-1.65.63-.17,1.1-.19,3.31.05,3.14.33,3.71.5,4.32.8.56.27,2.08,1.02,2.02,1.89-.06.74-1.31,1.2-2.12,1.5-1.87.67-3.51.52-4.76.38-1.37-.14-2.45-.28-3.58-1.06ZM79.17,269.67c-.47-.33-1.56-1.09-1.45-1.95.13-1.04,1.89-1.53,2.25-1.63.63-.17,1.1-.19,3.32.06,3.12.32,3.71.5,4.32.8.54.26,2.07,1.01,2.02,1.86-.07.76-1.31,1.2-2.14,1.52-1.87.67-3.51.52-4.76.38-1.36-.15-2.45-.28-3.57-1.05ZM96.36,325.88c-5.62-5.39-2.24-16.73-6.77-17.82-2.3-.56-3.54,2.26-7.01,2.22-5.22-.06-8.76-6.54-9.84-11.15-1.36-5.81.62-11.06,1.65-13.36.65,2.84,2.04,7.15,5.35,11.14,5.12,6.17,9.39,5.03,14.33,11.15,4.33,5.36,2.69,8.28,7.32,13.37,3.39,3.73,7.43,5.65,10.39,6.69-9.05,1.7-13.26-.17-15.43-2.24ZM166.18,388.47c-6.92-1.91-10.21-8.78-10.54-9.51-.53-1.15-1.92-4.27-1.39-7.98.29-2.04,1.05-3.51,1.6-4.38.82.71,2.02,1.89,3,3.6,2.55,4.46.69,7.45,2.89,9.78,1.94,2.05,4.15.57,7.59,2.82,2.29,1.5,3.67,3.7,4.49,5.4-1.34.48-4.14,1.24-7.65.27ZM190.76,423.55c-7.4-5.01-12.72-15.75-10.13-20.48.76-1.39,2.08-2.05,3.24-2.4.71,8.74,3.38,12.57,5.68,14.45,4.2,3.45,9.52,2.3,12.3,6.45,1.25,1.88,1.39,3.94,1.35,5.22-2.3.2-7.31.23-12.43-3.24ZM185.8,398.02c1.28.27,10.17,2.26,15.27,10.47,1.69,2.72,2.46,5.32,2.84,7.23-1.71-2.62-4.21-5.57-7.57-6.84-2.71-1.03-4.23-.29-6.22-1.62-1.61-1.08-3.44-3.46-4.32-9.24ZM231.94,449.84c-.37-1.78-1.1-4.29-2.71-6.75-.52-.8-2.47-3.63-6.47-5.83-4.38-2.41-8.91-2.79-8.61-3.46.11-.24.78-.35,1.06-.39,6.18-.93,9.87-1.48,13.45.56,4.47,2.55,8.19,8.8,5.42,13.5-.64,1.08-1.5,1.87-2.14,2.37ZM262.49,452.89c-.86.12-1.63-.97-1.96-1.44-.77-1.11-.9-2.21-1.06-3.56-.15-1.25-.31-2.89.36-4.76.31-.83.75-2.07,1.49-2.13.87-.07,1.63,1.45,1.89,1.99.3.61.49,1.2.84,4.33.25,2.21.23,2.68.06,3.31-.11.37-.59,2.14-1.62,2.26ZM271.45,451.43c-.86.12-1.6-.97-1.93-1.44-.8-1.11-.93-2.21-1.09-3.56-.13-1.27-.31-2.89.39-4.76.28-.83.72-2.07,1.49-2.13.86-.09,1.6,1.45,1.89,1.99.3.61.46,1.2.82,4.32.23,2.22.23,2.68.05,3.32-.08.37-.58,2.13-1.62,2.26ZM299.33,428.13c-2.15.68-3.25-1.22-5.41-1.2-3.91.04-6.7,6.25-7.11,7.15-1.09,2.41-1.36,4.62-1.41,5.99l-.09-.09c-.37-.31-.99-.75-1.43-1.59-.79-1.47-.23-2.42-.62-4.21-.35-1.48-1.1-2.44-1.99-3.57-1.32-1.68-2.8-2.7-3.84-3.29-.11.8-.22,2-.26,3.47-.04,1.64.05,2.58.37,6.97.15,1.91,0,3.85.38,5.73.29,1.6.69,2.79,0,3.75-.48.66-1.39,1.09-1.87.82-.41-.24-.33-.93-.36-2.15-.03-1.2-.26-2.37-.38-3.56-.23-2.54-.35-3.82-.71-4.83-.36-.95-.96-1.84-2.16-3.57-2.05-2.95-2.55-3.02-2.96-4.37-.56-1.81-.21-3.42-.01-4.28.44-2.01,1.39-3.4,1.94-4.13-2.63-1.9-5.24-3.8-7.87-5.7-2.32,2.5-4.64,5-6.96,7.53.99,2.61,1.91,4.06,2.61,4.9.2.26.73.87.9,1.78.13.78-.05,1.45-.27,2.07-.71,1.91-1.58,2.36-2.4,3.84-.6,1.06-.78,2.27-1.16,4.74-.32,2.13-.48,3.2-.35,4.46.44,3.93.45,4.03.45,4.03.12.71.25,1.44-.17,1.8-.37.31-1.03.17-1.44-.01-.56-.24-1.07-.81-1.6-2.68-.2-.66-.58-2.08-.72-4.65-.01-.24-.03-.51-.06-.77.69-2.13,1.3-4.48,1.71-7.29.69-4.81.42-8.89.04-11.65-1.24,1.16-2.79,2.72-4.48,4.65-3.24,3.72-4.88,5.56-5.39,7.64-.61,2.47,0,3.99-1.43,6.24-.17.29-1.48,2.31-2.48,2.03-.88-.25-.96-2.09-1.49-4.85-.58-2.94-1.07-5.53-1.99-7.21-3.04-5.47-12.4-4.49-12.71-7.36-.1-.87.77-1.66,2.53-3.26,1.88-1.74,3.54-2.5,4.58-3.09,3.79-2.12,5.78-5.58,6.66-7.09,2.53-4.37,2.63-8.96,2.42-11.79-5.53,1.15-8.92,3.33-10.98,5.09-1.99,1.69-5.24,5.12-8.09,8.56-2.1,2.51-3.3,4.2-3.91,3.9-.89-.4.13-4.42.53-6.28,1.04-4.82,1.63-11.93-.49-21.95-1.67,1.36-4.11,3.76-5.62,7.41-2.67,6.37-1.82,13.38-3.66,13.6-.34.03-.67-.18-.97-.4-1.41-.98-1.33-3.18-1.48-4.37-.49-4.13-4.52-7.18-5.18-7.66-4.29-3.21-9.07-1.55-9.98-4.04-.33-.9-.05-1.98.39-2.65.7-1.07,1.92-1.33,2.92-1.56,2.12-.5,5.43-1.31,6.68-1.71,2.45-.8,3.85-2.23,6.19-4.68,1.47-1.53,3.57-4.07,5.23-7.8-1.64.05-3.89.22-6.47.76-3.53.72-6.03,1.23-8.38,2.79-5.33,3.55-5.57,9.71-8.59,9.49-.71-.06-1.54-.45-1.8-1.08-.52-1.23,1.5-2.88,2.66-4.21,2.66-3.07,2.72-6.97,2.79-12.27.08-6.43-1.82-11.55-3.16-14.38-3.54,2.79-5.12,5.63-5.89,7.74-1.42,3.91-2.27,11.34-2.41,12.48-.22,2.05-.42,4.17-1.36,4.37-1.05.23-2.41-1.92-2.62-2.26-1.16-1.84-1.21-3.51-1.37-4.77,0,0-.57-4.12-3.1-7.75-.26-.4-4.24-5.95-9.64-6.24-1.57-.08-3.09.28-5.78-.4-1.57-.4-2.61-.69-3.14-1.53-.92-1.51.69-3.52,2.35-6.99,1.65-3.51,2.75-7.19,3.09-9.82.31-2.34.29-5.92-1.67-10.65-3.76,2.18-5.59,4.65-6.54,6.55-1.36,2.63-2.27,6.51-2.76,8.72-.79,3.31-1,5.49-1.81,5.54-.77.06-1.57-1.85-1.83-2.48-.89-2.14-.72-3.62-.88-5.26-.06-.43-.5-4.39-3-7.48-1.6-1.96-3.46-2.87-6.48-4.35-.94-.45-1.66-.74-2.23-.94-.69-.25-1.27-.41-2.37-.79-1.56-.55-1.64-.67-1.67-.78-.19-.61,1.18-1.27,2.87-2.72.58-.5,1.22-1.29,2.66-2.73,2.9-2.89,5.02-4.76,5.33-6.96.25-1.77-.35-3.39-1.58-6.64-.86-2.28-1.81-4.1-2.51-5.34-1.45,1.89-2.54,3.47-3.28,4.59-2.29,3.44-2.29,4.36-4.05,6.36-.27.3-.54.6-.85.91-.65.66-1.75,1.76-3.42,2.97-1.74,1.29-2.02,1.2-2.12,1.13-.59-.33-.23-2.02-.13-2.61.62-3.88-1.97-8.85-4.25-11.26-4.88-5.11-12.47-1.77-14.86-6.25-.96-1.81.27-2.35-.38-5.76-.64-3.39-3-8.99-7.54-10.98-.7-.3-1.36-.5-1.98-.61.1-.01.21-.04.33-.07,2.72-.59,2.85-.52,3.49-.82,1.13-.5,2.58-1.56,3.83-4.02-1.78-.84-3.23-.99-4.2-.99-1.41.02-1.75.36-3.93.55-1.63.15-2.84.08-3.94,0-2.57-.14-3.98-.52-4.65-.7-1.86-.54-2.43-1.05-2.68-1.59-.19-.41-.33-1.07.01-1.44.33-.41,1.05-.29,1.77-.18,0,0,.1.01,4.04.43,1.27.13,2.34-.03,4.46-.37,2.47-.39,3.69-.59,4.73-1.18,1.48-.83,1.92-1.7,3.83-2.42.61-.22,1.28-.4,2.07-.28.93.15,1.54.68,1.78.89.84.7,2.3,1.61,4.93,2.57,2.5-2.32,4.99-4.65,7.48-6.98-1.9-2.63-3.81-5.24-5.72-7.86-.73.59-2.12,1.53-4.1,1.98-.88.2-2.49.56-4.31.01-1.36-.41-1.43-.91-4.39-2.94-1.74-1.19-2.63-1.79-3.58-2.14-1.01-.35-2.3-.47-4.82-.7-1.2-.11-2.38-.32-3.58-.35-1.23-.03-1.91.06-2.15-.35-.27-.47.15-1.38.81-1.87.95-.7,2.18-.3,3.75-.02,1.88.37,3.82.22,5.73.36,4.39.3,5.33.39,6.97.34,1.47-.05,2.68-.18,3.46-.28-.59-1.04-1.62-2.52-3.3-3.83-1.13-.9-2.1-1.63-3.58-1.97-1.77-.4-2.74.18-4.21-.6-.83-.45-1.29-1.05-1.6-1.42-.23-.28-.5-.58-.79-.87,2.15-.68,4.36-3.03,7.27-2.93,2.81.09,4.77,2.44,8.26,6.65,1.8,2.16,4.12,5.44,6.1,9.91.41-.79.94-1.91,1.28-3.31.52-2.07.45-3.71.39-4.71-.07-1.1-.19-3.29-1.21-5.42-1.33-2.86-3.66-4.33-6.07-5.85-4.36-2.71-7.49-2.99-7.53-4.65,0-.88.88-1.6,1.79-2.34,1.98-1.62,3.72-1.62,6.06-2.4.91-.29,3.75-1.22,6-3.34,3.24-3.06,4.25-7.7,4.46-8.65.56-2.6.39-4.48,1.56-5.02.81-.39,1.93-.02,2.54.62.96.98.63,2.54.13,5.88,0,0-.55,3.52-.87,6.39-.46,4.01-.67,6.05.03,8.2.72,2.25,2.06,3.79,3.02,4.68.9-.59,2.11-1.46,3.4-2.67,1.85-1.72,3.46-3.22,4.37-5.47.48-1.17.45-3.22.37-7.35-.08-5.09-.47-5.73-.84-6.19-.8-.94-1.89-1.34-3.09-3.19-.79-1.21-.69-1.57-.6-1.71.37-.54,1.92-.25,2.9.09,2.43.88,2.93,2.83,4.63,4.78,1.46,1.68,3.81,2.63,8.48,4.54,1.96.81,4.71,1.79,8.12,2.62.18-1.07.32-2.72-.15-4.59-.2-.77-.78-2.62-3.54-5.62-1.57-1.71-4.09-4.35-8.33-6.35-4.6-2.19-8.28-2.18-8.21-2.93.06-.6,2.22-.63,5.81-1.75,2.81-.88,5.84-1.81,8.59-4.2.63-.54,3.9-3.4,5.16-7.5.44-1.41.92-2.5,1.89-4.7.72-1.64,1.08-2.31,1.58-2.36.98-.07,1.8,2.31,1.93,2.66.9,2.61.31,4.35.27,7.13-.02,2.88.6,5,1.14,6.94.6,2.02,1.75,5.04,4.21,8.29.98-.53,2.46-1.53,3.51-3.22.43-.69,1.04-1.93,1.21-7.16.15-4.55.23-6.83-.35-8.31-1.03-2.65-2.83-4.1-2.12-5.96.06-.14.37-1,1.09-1.3.73-.27,1.68.08,3.47,1.6,1.93,1.61,2.6,2.65,3.92,4.01.53.58,2.37,2.45,4.87,3.94,1.34.8,3.47,1.83,6.44,2.39-.62-2.75-1.48-4.92-2.13-6.38-2.01-4.44-3.68-8.16-7.34-9.98-.69-.34-2.47-1.12-4.71-2.64-2.19-1.49-2.41-2.03-2.36-2.43.13-1.04,2.09-1.25,4.24-2.49,3.18-1.82,4.77-4.73,5.32-5.77,2.19-4.06.91-6.55,3.76-9.83.63-.71,1.52-1.73,2.34-1.55,1.26.25,1.13,3.06,2.24,7.13,0,0,.96,3.61,2.57,6.48,1.09,1.99,3.38,5.13,8.42,7.69.57-1.66,1.25-4.11,1.48-7.15.25-3.28.5-6.68-1.19-9.89-1.56-2.92-4.71-5.71-6.28-7.1-1.49-1.31-2.51-2.02-2.67-3.4-.26-2.17,1.84-4.2,2.83-5.13,2.6-2.47,4.12-2.11,7.43-4.21.94-.6,4.24-2.83,6.6-6.72,1.9-3.14,2.45-6.18,2.93-8.83.94-5.18.28-7.86,1.53-8.37,1.17-.49,2.83,1.28,4.56,3.06,3.67,3.88,3.89,6.21,6.52,8.65,1.33,1.24,3.53,2.74,7.15,3.53,1.06-3.27.8-5.83.57-7.15-.17-.91-.79-4.21-3.33-6.95-1.34-1.45-2.73-2.23-4.19-4.62-.49-.83-1.26-1.45-1-2.02.37-.83,2.52-.65,2.81-.62,3.35.26,5.63,2.67,6.38,3.36,2.19,2.03,6.3,3.94,14.94,3.17-1.02-3.04-2.44-5.16-3.48-6.48-1.14-1.45-3.73-4.68-8.16-6.47-2.61-1.03-5.11-1.04-5.95-2.91-.3-.73-.26-1.43-.19-1.9.1-.24.27-.59.61-.9,1.15-1.07,3.15-.62,3.66-.54,3.22.56,10.66-2.14,12.8-6.58.4-.83.61-1.73.66-2.64.09.46.22.98.36,1.61.71,3.04.75,3.02,1.17,4.92.61,2.71.53,2.84.82,3.49.5,1.13,1.56,2.58,4.02,3.83.84-1.78.99-3.23.99-4.2,0-1.43-.36-1.75-.55-3.93-.15-1.63-.08-2.84,0-3.94.15-2.55.52-3.98.7-4.65.55-1.87,1.05-2.43,1.61-2.7.4-.17,1.07-.3,1.44.01.4.34.27,1.07.19,1.78,0,0-.03.09-.45,4.02-.14,1.28.03,2.34.37,4.46.39,2.47.58,3.71,1.17,4.75.83,1.48,1.72,1.91,2.42,3.83.23.6.4,1.28.28,2.07-.15.93-.68,1.54-.89,1.78-.68.86-1.61,2.3-2.57,4.93,2.33,2.49,4.66,4.98,6.99,7.5,2.62-1.92,5.24-3.83,7.86-5.75-.57-.71-1.55-2.11-1.98-4.1-.2-.88-.56-2.49-.02-4.29.41-1.36.92-1.44,2.94-4.39,1.21-1.76,1.82-2.63,2.14-3.58.35-1.01.48-2.28.7-4.82.11-1.2.32-2.38.35-3.58.03-1.23-.06-1.91.35-2.15.47-.27,1.41.15,1.88.79.7.95.3,2.18,0,3.76-.35,1.87-.2,3.81-.34,5.72-.01.27-.03.54-.06.8-.34,1.31-.61,2.73-.83,4.27-.69,4.81-.42,8.89-.04,11.65,1.24-1.16,2.79-2.72,4.48-4.62,3.26-3.73,4.88-5.59,5.39-7.67.59-2.45,0-3.96,1.43-6.24.18-.27,1.46-2.3,2.48-2.03.87.27.96,2.09,1.49,4.85.58,2.94,1.07,5.53,1.99,7.21,3.04,5.47,12.4,4.49,12.71,7.36.1.87-.78,1.67-2.52,3.27-1.89,1.73-3.57,2.5-4.58,3.09-3.79,2.12-5.79,5.56-6.69,7.09-2.5,4.37-2.63,8.96-2.41,11.77,5.53-1.15,8.92-3.33,10.98-5.09,1.98-1.67,5.24-5.09,8.11-8.55,2.1-2.51,3.3-4.2,3.9-3.92.9.41-.13,4.42-.53,6.28-1.04,4.82-1.61,11.94.51,21.96,1.65-1.37,4.1-3.77,5.6-7.43,2.65-6.35,1.82-13.38,3.66-13.6.34-.03.67.18.97.4,1.41.98,1.33,3.18,1.49,4.39.47,4.13,4.51,7.16,5.17,7.65,4.27,3.23,9.07,1.55,9.98,4.04.33.9.06,2-.38,2.67-.7,1.07-1.94,1.35-2.95,1.56-2.11.49-5.42,1.3-6.68,1.71-2.44.79-3.82,2.23-6.18,4.66-1.48,1.54-3.57,4.07-5.24,7.81,1.65-.06,3.89-.22,6.47-.76,3.55-.74,6.04-1.24,8.39-2.8,5.34-3.54,5.57-9.71,8.61-9.48.7.04,1.53.44,1.79,1.07.52,1.23-1.5,2.88-2.66,4.21-2.66,3.07-2.72,6.97-2.79,12.27-.1,6.45,1.82,11.55,3.14,14.4,3.56-2.8,5.13-5.65,5.9-7.76,1.4-3.9,2.27-11.34,2.41-12.48.22-2.05.4-4.15,1.36-4.37,1.05-.2,2.43,1.93,2.62,2.26,1.16,1.84,1.22,3.52,1.38,4.79,0,0,.55,4.11,3.07,7.75.27.38,4.26,5.95,9.64,6.24,1.57.08,3.11-.29,5.79.39,1.57.4,2.61.69,3.14,1.53.9,1.52-.69,3.52-2.34,7.01-1.66,3.5-2.76,7.18-3.11,9.82-.29,2.33-.27,5.9,1.67,10.65,3.79-2.18,5.61-4.66,6.56-6.53,1.36-2.66,2.27-6.54,2.77-8.73.76-3.31.99-5.51,1.8-5.55.78-.04,1.56,1.86,1.83,2.48.89,2.17.72,3.62.9,5.27.03.43.5,4.39,2.98,7.47,1.6,1.96,3.44,2.89,6.48,4.35.96.47,1.64.75,2.23.96.67.24,1.27.38,2.37.76,1.56.55,1.64.67,1.67.78.19.61-1.18,1.27-2.87,2.72-.58.5-1.24,1.3-2.66,2.73-2.9,2.89-5.02,4.76-5.35,6.97-.24,1.75.36,3.38,1.6,6.63.85,2.29,1.81,4.1,2.52,5.36,1.42-1.89,2.53-3.49,3.27-4.6,2.29-3.44,2.29-4.35,4.05-6.36.27-.3.55-.59.85-.91.65-.66,1.74-1.74,3.4-2.96,1.75-1.3,2.04-1.19,2.14-1.15.6.34.25,2.04.15,2.62-.63,3.87,1.96,8.87,4.23,11.24,4.89,5.12,12.48,1.78,14.86,6.25.96,1.81-.25,2.37.38,5.79.56,3.01,2.51,7.79,6.16,10.2-.9.39-1.61.96-2.41,1.59-1.68,1.32-2.7,2.8-3.31,3.84.81.1,2.03.22,3.49.26,1.63.05,2.57-.03,6.97-.37,1.9-.13,3.85,0,5.72-.37,1.58-.3,2.81-.71,3.75,0,.66.45,1.09,1.39.82,1.87-.24.41-.93.33-2.15.36-1.2.03-2.38.25-3.58.37-2.54.23-3.81.37-4.82.72-.97.34-1.82.95-3.57,2.16-2.93,2.03-3.02,2.55-4.37,2.96-1.8.55-3.41.19-4.29,0-2-.42-3.4-1.39-4.11-1.96-1.9,2.63-3.81,5.26-5.71,7.89,2.52,2.33,5.03,4.64,7.53,6.96,2.62-.98,4.06-1.91,4.91-2.59.24-.21.85-.74,1.78-.9.77-.14,1.45.02,2.05.25,1.93.72,2.37,1.59,3.86,2.42,1.04.58,2.28.76,4.74,1.16,2.13.32,3.2.48,4.48.33,3.94-.44,4.01-.45,4.01-.45.71-.12,1.45-.23,1.8.17.31.37.19,1.04,0,1.43-.26.57-.82,1.09-2.68,1.63-.67.19-2.09.56-4.65.72-1.11.06-2.32.13-3.94,0-2.18-.18-2.51-.54-3.94-.53-.97,0-2.41.16-4.2.99,1.28,2.46,2.73,3.52,3.86,4.01.64.3.77.23,3.5.8,1.7.35,1.87.44,4.14.96-3.19,3.03-4.98,8.7-4.51,11.42.1.5.55,2.51-.52,3.67-.3.33-.65.52-.9.62-.46.06-1.17.12-1.88-.2-1.88-.82-1.89-3.33-2.95-5.93-1.79-4.43-5.05-6.99-6.51-8.13-1.33-1.04-3.46-2.44-6.5-3.45-.72,8.64,1.2,12.75,3.26,14.91.7.75,3.1,3.03,3.39,6.37.03.29.21,2.45-.62,2.83-.56.24-1.2-.51-2.01-1.01-2.41-1.43-3.19-2.83-4.66-4.15-2.74-2.53-6.04-3.14-6.97-3.29-1.31-.23-3.88-.48-7.13.59.79,3.63,2.31,5.83,3.55,7.15,2.47,2.6,4.8,2.81,8.69,6.48,1.8,1.71,3.56,3.37,3.09,4.53-.51,1.26-3.19.61-8.37,1.57-2.67.51-5.7,1.07-8.83,2.99-3.86,2.36-6.08,5.68-6.69,6.63-2.09,3.33-1.7,4.82-4.17,7.45-.92.99-2.94,3.1-5.11,2.85-1.37-.17-2.08-1.19-3.4-2.67-1.4-1.57-4.2-4.7-7.15-6.23-3.21-1.69-6.62-1.41-9.9-1.15-3.02.24-5.49.94-7.14,1.51,2.59,5.03,5.74,7.3,7.73,8.38,2.9,1.58,6.51,2.52,6.51,2.52,4.07,1.09,6.86.97,7.14,2.21.19.81-.84,1.73-1.55,2.36-3.26,2.85-5.77,1.6-9.8,3.79-1.04.56-3.95,2.16-5.76,5.36-1.24,2.16-1.43,4.12-2.46,4.24-.4.06-.96-.15-2.44-2.35-1.55-2.22-2.33-4-2.68-4.69-1.82-3.66-5.56-5.31-10.01-7.29-1.46-.65-3.64-1.49-6.39-2.1.59,2.95,1.64,5.07,2.44,6.41,1.5,2.49,3.38,4.33,3.95,4.87,1.37,1.31,2.41,1.98,4.04,3.88,1.52,1.79,1.89,2.73,1.61,3.48-.3.73-1.15,1.04-1.3,1.1-1.85.72-3.3-1.09-5.95-2.11-1.48-.57-3.77-.48-8.33-.29-5.23.2-6.47.81-7.13,1.24-1.69,1.05-2.69,2.53-3.23,3.53,3.27,2.43,6.28,3.58,8.32,4.16,1.94.54,4.05,1.16,6.93,1.12,2.78-.05,4.52-.65,7.13.24.37.11,2.75.92,2.67,1.92-.04.5-.71.86-2.34,1.57-2.19.98-3.29,1.48-4.69,1.91-4.1,1.29-6.95,4.58-7.49,5.21-2.36,2.74-3.29,5.8-4.14,8.59-1.12,3.61-1.14,5.78-1.73,5.82-.77.09-.78-3.59-2.97-8.19-2.02-4.23-4.69-6.72-6.39-8.3-3.02-2.75-4.89-3.3-5.66-3.49-1.86-.48-3.52-.32-4.58-.15.84,3.42,1.84,6.16,2.66,8.11,1.92,4.67,2.9,7.01,4.58,8.46,1.94,1.71,3.9,2.2,4.79,4.62.36.95.66,2.51.11,2.89-.13.07-.5.19-1.71-.59-1.86-1.19-2.26-2.28-3.19-3.06-.46-.4-1.11-.77-6.18-.83-4.15-.06-6.2-.09-7.36.39-2.25.92-3.76,2.55-5.45,4.39-1.22,1.31-2.09,2.53-2.66,3.41.9.95,2.44,2.29,4.68,3.01,2.17.68,4.21.46,8.21-.02,2.85-.32,6.37-.89,6.37-.89,3.35-.54,4.89-.85,5.89.09.63.63,1,1.74.63,2.54-.55,1.18-2.42,1-5.02,1.58-.97.23-5.6,1.25-8.65,4.51-2.09,2.24-3.03,5.1-3.29,6-.78,2.35-.77,4.09-2.37,6.07-.51.66-1.22,1.46-2.33,1.8ZM304.33,432.67c-.06-1.17-.36-9.32,5.67-14.27,2-1.64,4.11-2.45,5.7-2.87-1.9,1.66-3.92,4.05-4.26,7.14-.27,2.5.73,3.85.01,5.7-.58,1.5-2.25,3.26-7.12,4.3ZM304.34,438.37c7.52-1,10.27-3.57,11.39-5.73,2.06-3.95-.18-8.73,2.82-11.42,1.36-1.21,3.14-1.42,4.27-1.44.71,2.08,1.89,6.62.03,11.41-2.69,6.92-10.9,12.18-15.66,10.02-1.39-.63-2.29-1.8-2.86-2.85Z"/>
      <path class="cls-1" d="M321.73,231.47c11.64-2.36,25.61-11.3,25.61-26.17,0-8.77-4.3-15.56-10.96-19.85-7.13-4.51-15.73-6.27-29.35-6.27h-54.44c-.9.03-2.24.18-3.73.8-3.1,1.28-5.33,3.95-5.99,6.12-1.36,4.47,2.6,11.31,10.66,14.05.69-1.12,7.48-12.33,11.17-11.09,2.54.86,3.27,7.39,2.92,14.27-.26,5.54-.56,12.72-.9,22.09-5.16-.73-11.13-1.33-17.32-1.33-8.64,0-42.54,2.28-61.62,28.49-3.01,4.13-11.65,16.29-11.6,33.52.09,18.48,10.14,31.15,15.34,37.68,0,0,15.68,19.98,40.26,25.82,1.93.43,3.52.73,4.55.95,2.8.58,10.94,1.66,21.48,0,8.63-1.35,14.96-2.34,21.17-6.77,10.07-7.18,13.08-18.6,14.02-23.37-4.91-1.53-11.77-2.91-15.35.53-3.69,3.54-.34,8.77-4.35,13.05-4.06,4.33-12.18,3.99-19.79,3.67-2.48-.1-4.53-.35-5.92-.56,0,0,0,0,0,0-.39-.09-1.03-.17-1.89-.3-21.96-3.78-30.85-16.33-30.85-16.33-4.56-6.4-1.07-8.34-4.3-30.08-2.36-16.03-5.06-20.43-4.96-25.69.01-.76.16-2.52.66-4.39,2.17-8,9.85-12.4,19.21-17.66,2.68-1.51,5.11-2.88,8.7-4.35,8.41-3.46,18.29-7.55,26.71-3.47,1.87.91,5.18,2.95,8.09,7.82,3.21,13.81,2.63,24.26,1.75,30.56-.87,6.22-2.26,10.15-5.59,12.2-2.49,1.54-6.25,2.15-9.21.74-2.22-1.06-2.94-2.45-4.35-4.35-1.58-2.13-4.98-4.35-13.05-4.35-.16.44-2.4,7.19,2.12,12.95,4.4,5.61,11.24,5.2,11.77,5.16h50.15c13.23,0,24.88-2.49,34.03-7.52,10.18-5.71,17.19-16.11,17.19-27.2,0-17.02-13.28-25.95-32.06-29.35ZM254.69,187.26c-2.26,2.04-3.12,3.19-3.12,3.19-1.03,1.38-1.19,2.06-1.7,2.1-1.27.08-3.18-3.75-2.65-6.45.74-3.75,15.33-4.03,15.46-3.14.08.56-4.44,1.09-8,4.3ZM198.23,311.87c-1.41,1.13-5.83-1.68-8.59-4.3-5.59-5.3-8.38-13.59-7.66-21.44.42-4.53,1.9-7.74,4.35-13.05,2.6-5.63,5.47-9.93,7.61-12.78.34.99.76,2.39,1.09,4.08.43,2.15,1.2,7.16,0,13.05-1.61,7.9-4.91,8.32-4.35,13.05.35,2.93,1.65,3.02,4.35,8.7.8,1.69,5.25,11.04,3.2,12.68ZM325.45,184.92c1.5.4,11,2.96,13.12,9.87.54,1.75.68,4.06,0,4.35-.77.33-1.64-2.49-4.35-4.35-4.46-3.05-7.31-1.71-13.05-4.35-3.03-1.4-7.34-4.12-6.92-5.53.46-1.52,6.51-1.26,11.19,0ZM291.99,195.12c0-3.78-.17-5.37,1.8-6.66,1.42-.86,4.08-1.42,8.42-1.42,5.76,0,7.39,2.92,14.27,5.46,7.39,2.75,8.46,1.46,10.1,3.35,4.55,5.16.47,19.51-8.77,27.11-7.13,5.84-15.51,6.19-18.86,6.14h-6.96v-33.99ZM326.59,277.49c-2.06,6.88-12.07,10.27-19.04,10.36-2.79.04-7.43.17-11.17-3.22-2.84-2.54-4.38-6.79-4.38-13.41v-34.38h6.27c15.86-.09,21.27,3.87,23.2,7.56,2.15,4.08-.52,6.79.82,15.9,1.55,10.44,5.8,12.16,4.3,17.19ZM342.92,273.09c-1.59.7-3.79.87-4.35,0-.84-1.31,2.84-3.72,4.35-8.7.37-1.23,1.64-5.42,0-8.7-3.22-6.43-15.29-4.69-15.78-8.28-.24-1.79,2.56-3.6,4.3-4.3,6.1-2.44,12.37,3.77,12.89,4.3,4.52,4.59,4.34,10.63,4.3,12.89-.03,1.44-.37,10.44-5.71,12.78Z"/>
    </g>
  </g>
</svg>