<?xml version="1.0" encoding="UTF-8"?>
<svg id="Layer_2" data-name="Layer 2" xmlns="http://www.w3.org/2000/svg" xmlns:xlink="http://www.w3.org/1999/xlink" viewBox="0 0 52.29 67.94">
  <defs>
    <style>
      .cls-1 {
        fill: url(#radial-gradient-5);
      }

      .cls-2 {
        fill: url(#radial-gradient-3);
      }

      .cls-3 {
        fill: url(#radial-gradient-4);
      }

      .cls-4 {
        fill: url(#radial-gradient-2);
      }

      .cls-5 {
        fill: url(#radial-gradient);
      }

      .cls-6 {
        stroke: url(#radial-gradient-7);
      }

      .cls-6, .cls-7, .cls-8 {
        fill: none;
        stroke-miterlimit: 10;
        stroke-width: 1.5px;
      }

      .cls-7 {
        stroke: url(#radial-gradient-6);
      }

      .cls-8 {
        stroke: url(#radial-gradient-8);
      }
    </style>
    <radialGradient id="radial-gradient" cx="36.88" cy="26.74" fx="36.88" fy="26.74" r="1.73" gradientUnits="userSpaceOnUse">
      <stop offset="0" stop-color="#353454"/>
      <stop offset="1" stop-color="#a9b9d7"/>
    </radialGradient>
    <radialGradient id="radial-gradient-2" cx="26.15" cy="33.97" fx="26.15" fy="33.97" r="30.31" xlink:href="#radial-gradient"/>
    <radialGradient id="radial-gradient-3" cx="47.3" cy="34.07" fx="47.3" fy="34.07" r="1.57" xlink:href="#radial-gradient"/>
    <radialGradient id="radial-gradient-4" cx="6.54" cy="43.17" fx="6.54" fy="43.17" r="1.56" xlink:href="#radial-gradient"/>
    <radialGradient id="radial-gradient-5" cx="28.86" cy="15.52" fx="28.86" fy="15.52" r="1.23" xlink:href="#radial-gradient"/>
    <radialGradient id="radial-gradient-6" cx="15.86" cy="43.79" fx="15.86" fy="43.79" r="7.49" gradientUnits="userSpaceOnUse">
      <stop offset="0" stop-color="#99a1ca"/>
      <stop offset=".18" stop-color="#95a3c5"/>
      <stop offset="1" stop-color="#545486"/>
    </radialGradient>
    <radialGradient id="radial-gradient-7" cx="36.9" cy="44.28" fx="36.9" fy="44.28" r="7.2" xlink:href="#radial-gradient-6"/>
    <radialGradient id="radial-gradient-8" cx="27.02" cy="43.55" fx="27.02" fy="43.55" r="3.99" xlink:href="#radial-gradient-6"/>
  </defs>
  <g id="Layer_1-2" data-name="Layer 1">
    <g>
      <g>
        <path class="cls-5" d="M34.53,27.35c.04-.07,.06-.17,.12-.2,.32-.14,.64-.28,.96-.4,.37-.14,.75-.28,1.12-.42,.03-.01,.07-.02,.11-.02,.43-.05,.85-.09,1.28-.15,.13-.02,.26-.12,.38-.11,.23,.01,.47,.08,.72,.13-.04,.07-.05,.09-.06,.09-.52,.1-1.09,.12-1.56,.34-.36,.17-.74,.02-1.05,.24-.35,.25-.8,.14-1.17,.3-.17,.07-.35,.14-.53,.2-.09,.03-.18,.05-.27,.07-.02-.02-.03-.05-.05-.07Z"/>
        <path class="cls-4" d="M9.37,12.5c-.18,.91-.33,1.49-.41,2.08-.12,.87-.38,1.77-.24,2.6,.1,.61,.75,1.13,1.15,1.7,.38-.52,.97-.98,1.11-1.56,.27-1.1,.05-2.37,.47-3.38,.53-1.25,1.37-2.44,2.33-3.41,1.24-1.24,2.38-2.48,2.75-4.24,.2-.93,.68-.88,1.34-.55,1.5,.76,2.27,2.99,1.69,4.86-.13,.42-.3,.83-.41,1.26-.41,1.58,.09,2.66,1.35,2.93,1.67,.36,2.91-.34,3.1-1.97,.1-.87,0-1.9-.39-2.67-1.7-3.41-1.15-6.26,1.83-8.62,.1-.08,.21-.16,.32-.24,2.65-1.94,2.73-1.86,3.44,1.28,.25,1.1,.86,2.27,1.66,3.06,1.84,1.82,2.46,3.72,1.47,6.19-.61,1.53-.03,2.84,1.18,2.93,.66,.05,1.65-.15,1.96-.6,.39-.57,.48-1.61,.24-2.27-.62-1.73-.63-3.29,.61-4.69,.37-.42,1.03-.59,1.55-.87,.24,.48,.47,.97,.72,1.44,.78,1.46,1.35,3.09,2.41,4.32,1.38,1.6,2.09,3.29,2.13,5.37,.02,.9-.21,2.13,1.3,2.11,.87,0,1.32-1.1,1.05-2.48-.12-.62-.37-1.21-.58-1.87,1.88,.06,4.02,2.17,4.39,4.24,.39,2.1,.04,4.1-.84,6.05-.17,.37-.13,1.1,.13,1.37,4.93,5.26,4.94,11.23,2.48,17.47-2.43,6.15-6.76,10.93-11.81,14.99-3.66,2.94-7.66,5.45-11.52,8.15-.69,.48-1.4,.64-2.21,.17-7.85-4.61-15.06-9.97-20.4-17.49C1.55,45.68-.47,40.78,.1,35.11c.34-3.34,1.77-6.18,4.23-8.41,.91-.83,1.03-1.42,.49-2.53-2.07-4.26-.61-8.92,3.38-11.19,.25-.14,.54-.22,1.17-.47Zm41.35,24.72c.02-5.94-3.73-10.99-8.94-12.36-5.69-1.49-11.34,.92-14.15,6.05-.23,.42-.36,.91-.63,1.3-.23,.33-.58,.71-.93,.78-.23,.04-.56-.44-.82-.72-.11-.12-.13-.32-.2-.49-2.12-4.82-7.53-8.01-12.48-7.35-5.81,.78-10.16,4.95-10.93,10.57-.61,4.45,.75,8.47,3.04,12.18,5.09,8.25,12.6,13.87,20.73,18.79,.36,.22,1.09,.19,1.46-.03,7.26-4.35,13.95-9.39,19.04-16.28,2.79-3.79,4.74-7.93,4.81-12.44Zm-4.71-20.34c-.05,.16-.12,.32-.13,.48-.13,2.22-.76,3.17-2.05,3.09-1.28-.08-1.86-.98-1.84-3.13,.02-1.78-.64-3.2-1.8-4.53-.91-1.05-1.62-2.29-2.33-3.49-.34-.58-.48-1.27-.71-1.92-.15-.04-.3-.07-.45-.11-.35,.74-.87,1.46-.99,2.24-.1,.68,.19,1.45,.42,2.14,.44,1.36,.23,2.69-.7,3.4-.95,.73-1.99,.88-3.09,.3-1.27-.66-1.81-2.12-1.19-3.64,.87-2.13,.52-3.83-1.16-5.49-.88-.88-1.33-2.21-1.9-3.38-.26-.53-.33-1.16-.49-1.74-3.11,.8-6.19,5.2-3.86,8.41,1,1.38,1.11,2.95,.32,4.5-.78,1.55-2.47,2.09-4.19,1.38-1.4-.58-2-2.03-1.51-3.64,.2-.67,.47-1.34,.58-2.03,.23-1.52-.36-2.65-1.61-3.11-.61,2.16-2.08,3.68-3.75,5.09-.57,.48-1.02,1.26-1.22,1.98-.32,1.17-.41,2.41-.53,3.63-.15,1.44-.8,2.26-1.9,2.27-1.13,0-1.83-.75-1.95-2.21-.05-.61,.04-1.23,.07-1.84,.02-.41,.04-.82,.07-1.42-.39,.18-.6,.23-.76,.36-3.34,2.72-3.1,6.96-1.67,9.86,.33,.67,.79,.57,1.42,.32,1.46-.59,2.95-1.13,4.47-1.52,1.08-.28,2.23-.27,3.44-.41-.89-2.41-1.19-4.67,.32-7.08,.52,.56,.91,1,1.32,1.43,2.9,2.99,7.72,2.3,10.06-1.44,.29-.46,.6-.89,.9-1.34,.13,.1,.26,.2,.39,.3-.57,1.93-1.82,3.43-3.64,4.29-3.22,1.53-6.15,.8-8.88-1.8-.65,1.43-.7,2.75-.2,3.94,.36,.85,1.05,1.93,1.83,2.18,3.54,1.14,6.41,3.07,8.4,6.23,.48,.76,.77,.65,1.21-.03,2.34-3.6,5.61-5.78,9.88-6.37,1.47-.2,2.03-1.19,2.14-2.44,.08-.8-.17-1.64-.29-2.46-.06-.43-.16-.86-.24-1.29,.13-.05,.25-.09,.38-.14,.22,.44,.61,.86,.64,1.31,.08,1.53,.03,3.08,.03,4.52,2.48,.9,5.13,1.87,7.84,2.85,1.78-2.06,1.86-7.47-1.1-8.5Z"/>
        <path class="cls-2" d="M46.58,31.97c1.28,.65,1.82,2.94,1.13,4.21-.41-1.51-.77-2.86-1.13-4.21Z"/>
        <path class="cls-3" d="M7.49,45.16c-1.37-.44-2.26-2.62-1.77-3.98,.63,1.43,1.2,2.7,1.77,3.98Z"/>
        <path class="cls-1" d="M27.54,14.39c.92,.75,1.76,1.44,2.63,2.16-1.02,.54-2.64-.75-2.63-2.16Z"/>
      </g>
      <path class="cls-7" d="M12.44,50.26c-.63-7.99-.78-13.51,0-13.66,1.37-.26,4.41,16.2,6.2,15.94,.96-.14,1.45-5.06,1.03-18.22"/>
      <path class="cls-6" d="M32.87,47.04c1.24,3.52,3.21,5.76,4.58,5.5,1.53-.29,2.74-3.8,1.83-6.42-1.05-3.03-4.3-3.08-4.58-5.5-.25-2.12,1.9-4.88,3.67-4.58,1.31,.22,2.49,2.13,2.51,4.64"/>
      <path class="cls-8" d="M27.32,38.98c.96,6.64,.58,8.3,0,8.47-.93,.28-3.35-2.89-2.54-4.24,.55-.92,2.69-1.1,5.08,0"/>
    </g>
  </g>
</svg>